#!OML:ASF F:\VICON\USERDATA\INSTALL\rory3\rory3.ASF
:FULLY-SPECIFIED
:DEGREES
681
root 2.95161 16.7456 -0.0653279 15.4781 4.80856 11.4276
lowerback -7.21896 2.05029 0.702216
upperback -2.48373 2.87436 -7.33088
thorax 1.88756 1.45155 -7.83281
lowerneck -2.20125 14.2911 5.14305
upperneck 47.8135 23.6841 -1.22058
head 20.0122 10.4525 2.47389
rclavicle -7.72775e-015 3.29983e-014
rhumerus -37.3664 2.55971 -92.5356
rradius 42.5939
rwrist -37.9738
rhand -8.56372 -50.7799
rfingers 7.12502
rthumb 17.3664 -80.0241
lclavicle -7.72775e-015 3.29983e-014
lhumerus -28.307 -20.747 82.6308
lradius 41.3246
lwrist 73.8622
lhand -38.0588 -13.126
lfingers 7.12502
lthumb -11.096 16.5607
rfemur -51.0053 23.7871 -7.13676
rtibia 73.7522
rfoot 3.22594 10.6284
rtoes -42.4763
lfemur -32.1501 -6.86197 -36.7331
ltibia 37.8197
lfoot -16.6155 10.6885
ltoes 5.41388
682
root 2.95443 16.7445 -0.0665351 15.5449 4.6635 11.2831
lowerback -7.22269 2.11906 0.857169
upperback -2.54485 2.95203 -7.31386
thorax 1.84368 1.48879 -7.89775
lowerneck -2.15522 14.2637 5.09142
upperneck 47.7073 23.6489 -1.27901
head 19.9264 10.4338 2.43246
rclavicle -1.49089e-016 -1.86858e-014
rhumerus -37.4609 2.59481 -92.5612
rradius 42.6422
rwrist -37.9803
rhand -8.70753 -50.5609
rfingers 7.12502
rthumb 17.228 -79.8172
lclavicle -1.49089e-016 -1.86858e-014
lhumerus -28.1868 -20.8851 82.6602
lradius 41.1504
lwrist 73.9419
lhand -38.1578 -13.138
lfingers 7.12502
lthumb -11.1915 16.5435
rfemur -51.2213 23.8967 -7.11501
rtibia 73.7278
rfoot 2.93128 11.0075
rtoes -43.5344
lfemur -32.3027 -6.78028 -36.6
ltibia 37.8818
lfoot -16.6519 10.7338
ltoes 5.46518
683
root 2.95485 16.7472 -0.0680707 15.55 4.59264 11.2397
lowerback -7.19344 2.09971 0.850061
upperback -2.53009 2.92502 -7.27546
thorax 1.83652 1.47499 -7.85505
lowerneck -2.79179 14.4514 4.78845
upperneck 48.3698 23.9049 -0.703147
head 20.3765 10.4738 2.90163
rclavicle -1.55549e-014 3.65764e-014
rhumerus -37.3866 2.74867 -92.5805
rradius 42.6498
rwrist -37.9855
rhand -7.65748 -51.3484
rfingers 7.12502
rthumb 18.2384 -80.5134
lclavicle -1.55549e-014 3.65764e-014
lhumerus -27.9684 -20.8428 82.627
lradius 40.9213
lwrist 73.9603
lhand -37.8341 -13.6202
lfingers 7.12502
lthumb -10.8793 16.078
rfemur -51.3036 23.9905 -7.11797
rtibia 73.7152
rfoot 3.03409 10.9144
rtoes -43.4356
lfemur -32.4131 -6.75602 -36.5385
ltibia 38.0693
lfoot -16.8062 10.6644
ltoes 5.9788
684
root 2.95209 16.752 -0.0701827 15.5487 4.55835 11.1821
lowerback -7.19838 2.05864 0.818048
upperback -2.48174 2.87339 -7.23415
thorax 1.87859 1.45032 -7.79564
lowerneck -2.71958 14.4734 4.90184
upperneck 48.176 23.9995 -0.97606
head 20.3199 10.508 2.76152
rclavicle 6.11014e-014 -4.81059e-014
rhumerus -37.2545 2.86847 -92.6122
rradius 42.6693
rwrist -37.9787
rhand -7.28434 -51.7929
rfingers 7.12502
rthumb 18.5973 -80.9239
lclavicle 6.11014e-014 -4.81059e-014
lhumerus -27.7903 -20.7245 82.5185
lradius 40.8244
lwrist 74.0439
lhand -37.6719 -13.787
lfingers 7.12502
lthumb -10.7228 15.9193
rfemur -51.3429 24.0994 -7.08945
rtibia 73.6842
rfoot 2.94637 10.8787
rtoes -43.7638
lfemur -32.5508 -6.7073 -36.4435
ltibia 38.1873
lfoot -16.92 10.4614
ltoes 7.22789
685
root 2.94959 16.7517 -0.0727366 15.5432 4.53046 11.1079
lowerback -7.14701 2.04967 0.836285
upperback -2.45089 2.85938 -7.20996
thorax 1.87975 1.44375 -7.78228
lowerneck -2.94083 14.5125 4.88731
upperneck 48.2393 24.0747 -0.955934
head 20.4223 10.5169 2.81985
rclavicle 2.31087e-014 4.41302e-014
rhumerus -37.1667 2.89479 -92.6325
rradius 42.677
rwrist -37.9573
rhand -7.90545 -49.7299
rfingers 7.12502
rthumb 17.9998 -78.917
lclavicle 2.31087e-014 4.41302e-014
lhumerus -27.6618 -20.7281 82.4486
lradius 40.7854
lwrist 74.1657
lhand -37.5966 -13.9853
lfingers 7.12502
lthumb -10.6502 15.7248
rfemur -51.37 24.1796 -7.0451
rtibia 73.6693
rfoot 2.94651 10.9197
rtoes -43.777
lfemur -32.6836 -6.61847 -36.3641
ltibia 38.2811
lfoot -16.9046 10.4235
ltoes 7.5742
686
root 2.94971 16.7469 -0.07315 15.5439 4.5334 11.0281
lowerback -7.09521 2.07363 0.936493
upperback -2.4692 2.88233 -7.2128
thorax 1.84 1.4544 -7.84332
lowerneck -3.0729 14.5103 4.85854
upperneck 48.3134 24.0634 -0.881135
head 20.485 10.5039 2.87702
rclavicle 2.41026e-014 -3.18055e-014
rhumerus -37.1984 2.83329 -92.6409
rradius 42.7193
rwrist -37.9321
rhand -6.82258 -52.2475
rfingers 7.12502
rthumb 19.0415 -81.3354
lclavicle 2.41026e-014 -3.18055e-014
lhumerus -27.745 -20.795 82.4326
lradius 40.9365
lwrist 74.1718
lhand -37.3784 -14.4646
lfingers 7.12502
lthumb -10.4396 15.2562
rfemur -51.3882 24.2008 -6.97426
rtibia 73.6758
rfoot 3.06156 10.9384
rtoes -43.5105
lfemur -32.7275 -6.59207 -36.2936
ltibia 38.3568
lfoot -16.8524 10.5307
ltoes 7.15247
687
root 2.95255 16.7443 -0.0701818 15.5559 4.56504 11.0198
lowerback -7.16373 2.05178 0.981149
upperback -2.4323 2.85469 -7.23496
thorax 1.91585 1.44291 -7.8939
lowerneck -3.213 14.5226 4.84298
upperneck 48.3269 24.0593 -0.825654
head 20.5131 10.4954 2.92029
rclavicle -1.71452e-014 6.36111e-015
rhumerus -37.1675 2.88606 -92.7085
rradius 42.7789
rwrist -37.9942
rhand -7.94581 -49.3889
rfingers 7.12502
rthumb 17.961 -78.5796
lclavicle -1.71452e-014 6.36111e-015
lhumerus -27.7403 -20.8309 82.3517
lradius 41.0327
lwrist 74.2064
lhand -37.4508 -14.8611
lfingers 7.12502
lthumb -10.5095 14.8562
rfemur -51.3483 24.1543 -6.94395
rtibia 73.687
rfoot 3.06014 10.9096
rtoes -43.4636
lfemur -32.7399 -6.62108 -36.2889
ltibia 38.4189
lfoot -16.9092 10.5167
ltoes 7.13806
688
root 2.95511 16.7441 -0.0679724 15.5838 4.61386 11.0173
lowerback -7.23347 2.00228 0.991806
upperback -2.40544 2.79067 -7.22716
thorax 1.97346 1.41223 -7.89586
lowerneck -3.12132 14.5307 4.91721
upperneck 48.1484 24.0971 -1.00972
head 20.4255 10.5146 2.81067
rclavicle 1.85864e-014 -3.65764e-014
rhumerus -37.123 3.0294 -92.7685
rradius 42.7903
rwrist -38.0745
rhand -8.05017 -49.4747
rfingers 7.12502
rthumb 17.8606 -78.6746
lclavicle 1.85864e-014 -3.65764e-014
lhumerus -27.6494 -20.811 82.2984
lradius 40.9652
lwrist 74.3933
lhand -37.6826 -15.1214
lfingers 7.12502
lthumb -10.7331 14.5844
rfemur -51.3264 24.079 -6.90581
rtibia 73.7013
rfoot 3.04706 10.8625
rtoes -43.3885
lfemur -32.7826 -6.64517 -36.286
ltibia 38.4621
lfoot -16.9563 10.4705
ltoes 6.90793
689
root 2.95266 16.7444 -0.0713929 15.5623 4.65717 10.9356
lowerback -7.12616 1.98407 1.02826
upperback -2.44167 2.7573 -7.18566
thorax 1.87066 1.39236 -7.87855
lowerneck -2.83246 14.5029 5.02287
upperneck 47.8844 24.0892 -1.27084
head 20.2482 10.5316 2.62428
rclavicle 4.37823e-014 -6.32135e-014
rhumerus -37.1515 3.1246 -92.7909
rradius 42.7465
rwrist -38.1576
rhand -8.16151 -49.5263
rfingers 7.12502
rthumb 17.7534 -78.7358
lclavicle 4.37823e-014 -6.32135e-014
lhumerus -27.7026 -20.7603 82.312
lradius 41.0013
lwrist 74.548
lhand -38.0465 -14.9616
lfingers 7.12502
lthumb -11.0842 14.7257
rfemur -51.3508 24.0845 -6.77564
rtibia 73.7236
rfoot 3.68384 10.3562
rtoes -41.6813
lfemur -32.8067 -6.61574 -36.1885
ltibia 38.4765
lfoot -16.9448 10.4293
ltoes 6.6866
690
root 2.95009 16.7416 -0.0738226 15.5431 4.71022 10.8324
lowerback -7.06178 1.97735 1.08146
upperback -2.4664 2.7402 -7.14146
thorax 1.80678 1.38175 -7.86518
lowerneck -3.04138 14.5406 4.88835
upperneck 48.1584 24.1013 -0.970087
head 20.3945 10.5223 2.82239
rclavicle -2.99171e-014 2.3059e-014
rhumerus -37.2068 3.17133 -92.7946
rradius 42.7786
rwrist -38.2058
rhand -8.28165 -49.5361
rfingers 7.12502
rthumb 17.6378 -78.7561
lclavicle -2.99171e-014 2.3059e-014
lhumerus -27.7791 -20.7202 82.341
lradius 41.0385
lwrist 74.4737
lhand -38.3147 -14.6749
lfingers 7.12502
lthumb -11.3428 14.9984
rfemur -51.333 24.1185 -6.61635
rtibia 73.7388
rfoot 3.99261 9.87764
rtoes -40.7264
lfemur -32.7864 -6.57579 -36.082
ltibia 38.443
lfoot -16.8511 10.5057
ltoes 5.85474
691
root 2.95314 16.7403 -0.0698854 15.569 4.75436 10.8466
lowerback -7.15076 1.98589 1.0916
upperback -2.45756 2.75445 -7.15486
thorax 1.86874 1.39054 -7.88187
lowerneck -2.49046 14.4093 5.10806
upperneck 47.534 23.9401 -1.50818
head 19.9751 10.5036 2.41083
rclavicle -3.2551e-014 2.90226e-014
rhumerus -37.2369 3.11871 -92.7776
rradius 42.8222
rwrist -38.1652
rhand -8.13184 -49.7572
rfingers 7.12502
rthumb 17.782 -78.9642
lclavicle -3.2551e-014 2.90226e-014
lhumerus -27.7613 -20.7486 82.3732
lradius 40.9904
lwrist 74.2905
lhand -38.3358 -14.5628
lfingers 7.12502
lthumb -11.3632 15.1093
rfemur -51.2855 24.0812 -6.59551
rtibia 73.7419
rfoot 3.75673 9.89831
rtoes -41.4259
lfemur -32.7128 -6.59555 -36.1178
ltibia 38.3639
lfoot -16.7718 10.6016
ltoes 5.19268
